<svg xmlns="http://www.w3.org/2000/svg" width="17.647" height="15" viewBox="0 0 17.647 15"><defs><style>.a{fill:#186bb1;}</style></defs><g transform="translate(-0.001 -38.396)"><g transform="translate(0.001 38.396)"><g transform="translate(0 0)"><path class="a" d="M8.824,38.4a7.059,7.059,0,0,0-7.059,7.059c0,.092.008.182.014.272L.754,44.7a.441.441,0,0,0-.624.624l1.765,1.765a.441.441,0,0,0,.624,0l1.765-1.765A.441.441,0,1,0,3.66,44.7l-1,1c0-.081-.017-.16-.017-.242A6.173,6.173,0,0,1,14.787,43.87a1.238,1.238,0,0,1,.87-.158A7.055,7.055,0,0,0,8.824,38.4Z" transform="translate(-0.001 -38.396)"/></g></g><g transform="translate(1.991 44.573)"><g transform="translate(0 0)"><path class="a" d="M73.277,219.49l-1.765-1.765a.442.442,0,0,0-.624,0l-1.765,1.765a.441.441,0,0,0,.624.624l1-1c0,.081.017.16.017.242a6.173,6.173,0,0,1-12.139,1.585,1.238,1.238,0,0,1-.87.158,7.055,7.055,0,0,0,13.892-1.744c0-.092-.008-.182-.014-.272l1.025,1.025a.441.441,0,0,0,.624-.624Z" transform="translate(-57.749 -217.596)"/></g></g></g></svg>