<svg xmlns="http://www.w3.org/2000/svg" width="25.272" height="23.075" viewBox="0 0 25.272 23.075"><defs><style>.a{fill:#186bb1;}</style></defs><path class="a" d="M3.3,4.8V1.5h2.2V4.8h3.3v2.2h-3.3v3.3H3.3v-3.3H0V4.8Zm3.3,6.593v-3.3h3.3V4.8h7.692l2.011,2.2h3.483a2.2,2.2,0,0,1,2.2,2.2V22.377a2.2,2.2,0,0,1-2.2,2.2H5.494a2.2,2.2,0,0,1-2.2-2.2V11.389Zm7.692,9.889A5.494,5.494,0,1,0,8.79,15.784,5.5,5.5,0,0,0,14.284,21.278Zm-3.516-5.494a3.516,3.516,0,1,0,3.516-3.516A3.512,3.512,0,0,0,10.768,15.784Z" transform="translate(0 -1.5)"/></svg>