<svg xmlns="http://www.w3.org/2000/svg" width="18.804" height="18.804" viewBox="0 0 18.804 18.804">
  <g id="Icon_ionic-ios-checkmark-circle-outline" data-name="Icon ionic-ios-checkmark-circle-outline" transform="translate(-3.375 -3.375)">
    <path id="Path_53" data-name="Path 53" d="M20.116,13.079l-.8-.818a.171.171,0,0,0-.127-.054h0a.164.164,0,0,0-.127.054l-5.515,5.555-2.007-2.007a.175.175,0,0,0-.253,0l-.8.8a.18.18,0,0,0,0,.258L13.02,19.4a.8.8,0,0,0,.529.258.839.839,0,0,0,.524-.249h0l6.043-6.075A.193.193,0,0,0,20.116,13.079Z" transform="translate(-2.521 -3.154)"/>
    <path id="Path_54" data-name="Path 54" d="M12.777,4.641A8.133,8.133,0,1,1,7.023,7.023a8.082,8.082,0,0,1,5.754-2.382m0-1.266a9.4,9.4,0,1,0,9.4,9.4,9.4,9.4,0,0,0-9.4-9.4Z"/>
  </g>
</svg>
