<svg xmlns="http://www.w3.org/2000/svg" width="15.959" height="18.239" viewBox="0 0 15.959 18.239"><defs><style>.a{fill:#337ddc;}</style></defs><path class="a" d="M0,16.529a1.71,1.71,0,0,0,1.71,1.71H14.249a1.71,1.71,0,0,0,1.71-1.71V6.84H0ZM11.4,9.547a.429.429,0,0,1,.427-.427h1.425a.429.429,0,0,1,.427.427v1.425a.429.429,0,0,1-.427.427H11.827a.429.429,0,0,1-.427-.427Zm0,4.56a.429.429,0,0,1,.427-.427h1.425a.429.429,0,0,1,.427.427v1.425a.429.429,0,0,1-.427.427H11.827a.429.429,0,0,1-.427-.427ZM6.84,9.547a.429.429,0,0,1,.427-.427H8.692a.429.429,0,0,1,.427.427v1.425a.429.429,0,0,1-.427.427H7.267a.429.429,0,0,1-.427-.427Zm0,4.56a.429.429,0,0,1,.427-.427H8.692a.429.429,0,0,1,.427.427v1.425a.429.429,0,0,1-.427.427H7.267a.429.429,0,0,1-.427-.427ZM2.28,9.547a.429.429,0,0,1,.427-.427H4.132a.429.429,0,0,1,.427.427v1.425a.429.429,0,0,1-.427.427H2.707a.429.429,0,0,1-.427-.427Zm0,4.56a.429.429,0,0,1,.427-.427H4.132a.429.429,0,0,1,.427.427v1.425a.429.429,0,0,1-.427.427H2.707a.429.429,0,0,1-.427-.427ZM14.249,2.28h-1.71V.57a.572.572,0,0,0-.57-.57h-1.14a.572.572,0,0,0-.57.57V2.28H5.7V.57A.572.572,0,0,0,5.13,0H3.99a.572.572,0,0,0-.57.57V2.28H1.71A1.71,1.71,0,0,0,0,3.99V5.7H15.959V3.99A1.71,1.71,0,0,0,14.249,2.28Z"/></svg>