<svg xmlns="http://www.w3.org/2000/svg" width="22" height="22" viewBox="0 0 22 22">
  <g id="Group_2142" data-name="Group 2142" transform="translate(-836 -201)">
    <g id="Ellipse_127" data-name="Ellipse 127" transform="translate(836 201)" fill="#e1e1e1" stroke="#e1e1e1" stroke-width="1">
      <circle cx="11" cy="11" r="11" stroke="none"/>
      <circle cx="11" cy="11" r="10.5" fill="none"/>
    </g>
    <g id="wall-clock" transform="translate(842 207.5)">
      <g id="Group_338" data-name="Group 338">
        <g id="Group_337" data-name="Group 337">
          <path id="Path_40" data-name="Path 40" d="M414.743,376.8a.391.391,0,0,0-.547.08c-.071.1-.147.189-.225.278a.391.391,0,0,0,.585.517c.093-.105.183-.216.267-.329A.391.391,0,0,0,414.743,376.8Z" transform="translate(-405.79 -369.369)" fill="#848484"/>
          <path id="Path_41" data-name="Path 41" d="M463.088,286.433a.391.391,0,0,0-.465.3c-.025.116-.056.232-.091.345a.391.391,0,1,0,.746.231c.042-.134.078-.272.108-.41A.391.391,0,0,0,463.088,286.433Z" transform="translate(-453.482 -280.83)" fill="#848484"/>
          <path id="Path_42" data-name="Path 42" d="M334.575,442.243c-.1.058-.211.112-.319.161a.391.391,0,1,0,.322.712c.128-.058.255-.122.378-.191a.391.391,0,0,0-.381-.682Z" transform="translate(-327.502 -433.557)" fill="#848484"/>
          <path id="Path_43" data-name="Path 43" d="M158.35,76.391v2.963l-1.432,1.432a.391.391,0,0,0,.552.552l1.547-1.547a.391.391,0,0,0,.114-.276V76.391a.391.391,0,0,0-.781,0Z" transform="translate(-153.741 -74.516)" fill="#848484"/>
          <path id="Path_44" data-name="Path 44" d="M9.609.84a.391.391,0,0,0-.391.391V2.315A5,5,0,1,0,5,10h.02c.141,0,.283-.006.423-.018A.391.391,0,1,0,5.377,9.2c-.118.01-.238.015-.357.015H5A4.219,4.219,0,1,1,8.632,2.852H7.557a.391.391,0,1,0,0,.781H8.75A1.242,1.242,0,0,0,9.4,3.45l.035-.023A1.25,1.25,0,0,0,10,2.383V1.23A.391.391,0,0,0,9.609.84Z" fill="#848484"/>
        </g>
      </g>
    </g>
  </g>
</svg>
