<svg xmlns="http://www.w3.org/2000/svg" width="6.669" height="12" viewBox="0 0 6.669 12">
  <g id="Group_3093" data-name="Group 3093" transform="translate(-366.312 -219.262)">
    <path id="Path_40" data-name="Path 40" d="M1.333,0A1.333,1.333,0,1,1,0,1.333,1.333,1.333,0,0,1,1.333,0Z" transform="translate(366.312 219.262)" fill="#aeaeae"/>
    <path id="Path_41" data-name="Path 41" d="M1.333,0A1.333,1.333,0,1,1,0,1.333,1.333,1.333,0,0,1,1.333,0Z" transform="translate(366.312 223.929)" fill="#aeaeae"/>
    <path id="Path_42" data-name="Path 42" d="M1.333,0A1.333,1.333,0,1,1,0,1.333,1.333,1.333,0,0,1,1.333,0Z" transform="translate(366.312 228.595)" fill="#aeaeae"/>
    <path id="Path_43" data-name="Path 43" d="M1.333,0A1.333,1.333,0,1,1,0,1.333,1.333,1.333,0,0,1,1.333,0Z" transform="translate(370.314 219.262)" fill="#aeaeae"/>
    <path id="Path_44" data-name="Path 44" d="M1.333,0A1.333,1.333,0,1,1,0,1.333,1.333,1.333,0,0,1,1.333,0Z" transform="translate(370.314 223.929)" fill="#aeaeae"/>
    <path id="Path_45" data-name="Path 45" d="M1.333,0A1.333,1.333,0,1,1,0,1.333,1.333,1.333,0,0,1,1.333,0Z" transform="translate(370.314 228.595)" fill="#aeaeae"/>
  </g>
</svg>
