<svg id="Group_2257" data-name="Group 2257" xmlns="http://www.w3.org/2000/svg" width="14.91" height="13.782" viewBox="0 0 14.91 13.782">
  <path id="Subtraction_1" data-name="Subtraction 1" d="M7.455,13.782A7.453,7.453,0,0,1,2.184,1.055,7.493,7.493,0,0,1,3.508,0V7.2h8.113V.142a7.509,7.509,0,0,1,1.106.913A7.453,7.453,0,0,1,7.455,13.782Z" fill="#bbb"/>
  <path id="Icon_awesome-arrow-left" data-name="Icon awesome-arrow-left" d="M2.953,4.672,2.7,4.926a.274.274,0,0,1-.389,0L.081,2.7a.274.274,0,0,1,0-.389L2.31.081a.274.274,0,0,1,.389,0l.255.255a.275.275,0,0,1,0,.393L1.567,2.045h3.3a.275.275,0,0,1,.275.275v.367a.275.275,0,0,1-.275.275h-3.3L2.948,4.278A.273.273,0,0,1,2.953,4.672Z" transform="translate(4.952 6.122) rotate(-90)" fill="#bbb"/>
</svg>
