<svg xmlns="http://www.w3.org/2000/svg" width="17.612" height="16.532" viewBox="0 0 17.612 16.532">
  <path id="Icon_material-search" data-name="Icon material-search" d="M17.087,14.9h-.8l-.282-.255a5.9,5.9,0,0,0,1.581-4A6.354,6.354,0,0,0,11.045,4.5,6.354,6.354,0,0,0,4.5,10.644a6.354,6.354,0,0,0,6.545,6.144,6.771,6.771,0,0,0,4.26-1.484l.272.265v.747l5.035,4.717,1.5-1.408Zm-6.042,0a4.393,4.393,0,0,1-4.531-4.254A4.393,4.393,0,0,1,11.045,6.39a4.393,4.393,0,0,1,4.531,4.254A4.393,4.393,0,0,1,11.045,14.9Z" transform="translate(-4.5 -4.5)"/>
</svg>
