<svg xmlns="http://www.w3.org/2000/svg" width="19.975" height="20.536" viewBox="0 0 19.975 20.536">
  <path id="Icon_material-settings" data-name="Icon material-settings" d="M21.025,14.274a7.08,7.08,0,0,0,0-2.013l2.167-1.694a.518.518,0,0,0,.123-.657L21.261,6.358a.516.516,0,0,0-.626-.226L18.078,7.158a7.5,7.5,0,0,0-1.735-1.006l-.39-2.721A.5.5,0,0,0,15.45,3H11.342a.5.5,0,0,0-.5.431l-.39,2.721A7.889,7.889,0,0,0,8.714,7.158L6.157,6.132a.5.5,0,0,0-.626.226L3.477,9.91a.506.506,0,0,0,.123.657l2.167,1.694A8.143,8.143,0,0,0,5.7,13.268a8.143,8.143,0,0,0,.072,1.006L3.6,15.968a.518.518,0,0,0-.123.657l2.054,3.553a.516.516,0,0,0,.626.226l2.557-1.027a7.5,7.5,0,0,0,1.735,1.006l.39,2.721a.5.5,0,0,0,.5.431H15.45a.5.5,0,0,0,.5-.431l.39-2.721a7.889,7.889,0,0,0,1.735-1.006L20.635,20.4a.5.5,0,0,0,.626-.226l2.054-3.553a.518.518,0,0,0-.123-.657l-2.167-1.694ZM13.4,16.862a3.594,3.594,0,1,1,3.594-3.594A3.6,3.6,0,0,1,13.4,16.862Z" transform="translate(-3.406 -3)" fill="#1768ac"/>
</svg>
