<svg xmlns="http://www.w3.org/2000/svg" width="12.998" height="12.998" viewBox="0 0 12.998 12.998">
  <path id="Icon_awesome-question-circle" data-name="Icon awesome-question-circle" d="M13.561,7.062a6.5,6.5,0,1,1-6.5-6.5A6.5,6.5,0,0,1,13.561,7.062ZM7.236,2.711A3.394,3.394,0,0,0,4.182,4.382a.315.315,0,0,0,.071.426l.909.689A.314.314,0,0,0,5.6,5.442c.468-.594.789-.938,1.5-.938.535,0,1.2.345,1.2.864,0,.392-.324.594-.853.89-.616.346-1.432.776-1.432,1.852v.1a.314.314,0,0,0,.314.314H7.8a.314.314,0,0,0,.314-.314V8.18c0-.746,2.18-.777,2.18-2.8A2.99,2.99,0,0,0,7.236,2.711Zm-.174,6.5a1.205,1.205,0,1,0,1.205,1.205A1.207,1.207,0,0,0,7.062,9.21Z" transform="translate(-0.563 -0.563)" fill="#a19e9e"/>
</svg>
