<svg xmlns="http://www.w3.org/2000/svg" width="19.568" height="16.769" viewBox="0 0 19.568 16.769"><defs><style>.a{fill:#a8a8a8;}</style></defs><path class="a" d="M12.036,8.028a4.436,4.436,0,0,1,4.45,4.415,4.247,4.247,0,0,1-.319,1.616l2.6,2.576a10.439,10.439,0,0,0,3.052-4.192,10.538,10.538,0,0,0-13.332-6l1.921,1.908A4.4,4.4,0,0,1,12.036,8.028Zm-8.9-2.406L5.171,7.635l.41.406a10.389,10.389,0,0,0-3.332,4.4,10.553,10.553,0,0,0,13.681,5.878l.376.371,2.607,2.576,1.131-1.122L4.267,4.5ZM8.058,10.5l1.38,1.367a2.5,2.5,0,0,0-.07.572,2.655,2.655,0,0,0,2.668,2.646,2.51,2.51,0,0,0,.576-.07l1.38,1.367a4.427,4.427,0,0,1-6.406-3.948A4.362,4.362,0,0,1,8.058,10.5Zm3.834-.686L14.7,12.6l.017-.14A2.655,2.655,0,0,0,12.045,9.81Z" transform="translate(-2.25 -4.5)"/></svg>