<svg xmlns="http://www.w3.org/2000/svg" width="21.556" height="21.171" viewBox="0 0 21.556 21.171"><defs><style>.a{fill:#fff;}</style></defs><g transform="translate(0 -0.5)"><path class="a" d="M331.079,218.04a1.54,1.54,0,1,1-1.54-1.54A1.54,1.54,0,0,1,331.079,218.04Zm0,0" transform="translate(-312.218 -205.607)"/><path class="a" d="M59.079,218.04a1.54,1.54,0,1,1-1.54-1.54A1.54,1.54,0,0,1,59.079,218.04Zm0,0" transform="translate(-53.305 -205.607)"/><path class="a" d="M195.079,186.04a1.54,1.54,0,1,1-1.54-1.54A1.54,1.54,0,0,1,195.079,186.04Zm0,0" transform="translate(-182.761 -175.147)"/><path class="a" d="M6.17,310.659a1.893,1.893,0,0,1-.4-1.155v-3.849a3.463,3.463,0,0,1,.2-1.143c-.066,0-.132-.012-.2-.012H2.695a2.663,2.663,0,0,0-1.514.467A2.7,2.7,0,0,0,0,307.194v1.54a1.928,1.928,0,0,0,1.121,1.747,1.817,1.817,0,0,0,.419.139v-4.2h.77v4.234Zm0,0" transform="translate(0 -289.373)"/><path class="a" d="M136.012,440.3l-.012-.01v.01Zm0,0" transform="translate(-129.456 -418.632)"/><path class="a" d="M144.153,273.929a2.727,2.727,0,0,0-.863-.962.973.973,0,0,0-.112-.072,2.69,2.69,0,0,0-1.4-.395h-3.079A2.694,2.694,0,0,0,136,275.194v3.849a1.155,1.155,0,0,0,1.155,1.155h.385v-5.389h.77V280.2h3.849v-5.389h.77V280.2h.385a1.155,1.155,0,0,0,1.155-1.155v-3.849A2.688,2.688,0,0,0,144.153,273.929Zm0,0" transform="translate(-129.456 -258.912)"/><path class="a" d="M324.768,304.968a2.664,2.664,0,0,0-1.515-.468h-3.079c-.067,0-.133.007-.2.012a3.469,3.469,0,0,1,.2,1.143V309.5a1.893,1.893,0,0,1-.4,1.155h3.86v-4.234h.77v4.2a1.776,1.776,0,0,0,.413-.137,1.927,1.927,0,0,0,1.127-1.749v-1.54A2.7,2.7,0,0,0,324.768,304.968Zm0,0" transform="translate(-304.391 -289.373)"/><path class="a" d="M132.621,104.5a4.61,4.61,0,0,0-4.194,6.544h2.2a2.31,2.31,0,1,1,3.994,0h2.2a4.61,4.61,0,0,0-4.2-6.544Zm0,0" transform="translate(-121.842 -98.996)"/><path class="a" d="M42.861,8.583H40.783l-.075-.289a7.111,7.111,0,0,0-.785-1.881l-.154-.257,1.476-1.478a.381.381,0,0,0,0-.541L39.61,2.5a.39.39,0,0,0-.539,0L37.592,3.98l-.257-.154a7.127,7.127,0,0,0-1.883-.786l-.289-.075V.885A.385.385,0,0,0,34.778.5h-2.31a.385.385,0,0,0-.385.385V2.964l-.289.075a7.128,7.128,0,0,0-1.881.785l-.257.154L28.178,2.5a.39.39,0,0,0-.541,0L26,4.136a.382.382,0,0,0,0,.541L27.48,6.156l-.154.257a7.112,7.112,0,0,0-.785,1.881l-.076.289h-2.08A.385.385,0,0,0,24,8.968v2.31a.385.385,0,0,0,.385.385h.521a2.3,2.3,0,0,1,3.345-1.219c-.006-.107-.016-.212-.016-.32a5.389,5.389,0,1,1,10.778,0c0,.108-.01.214-.016.32a2.3,2.3,0,0,1,3.345,1.219h.521a.385.385,0,0,0,.385-.385V8.968a.385.385,0,0,0-.385-.385Zm0,0" transform="translate(-22.845)"/></g></svg>