<svg xmlns="http://www.w3.org/2000/svg" width="22.201" height="19.425" viewBox="0 0 22.201 19.425"><defs><style>.a{fill:#fff;}</style></defs><g transform="translate(0 -32.008)"><g transform="translate(0 36.17)"><g transform="translate(0 0)"><path class="a" d="M9.713,129.38v-1.388H1.388A1.39,1.39,0,0,0,0,129.38v2.775H10.006A12.424,12.424,0,0,1,9.713,129.38Z" transform="translate(0 -127.992)"/></g></g><g transform="translate(0 43.108)"><g transform="translate(0 0)"><path class="a" d="M22.144,287.992a12.48,12.48,0,0,1-4.457,3.887,2.085,2.085,0,0,1-2.069,0,12.542,12.542,0,0,1-4.458-3.889H0v6.938a1.389,1.389,0,0,0,1.388,1.388H20.813A1.388,1.388,0,0,0,22.2,294.93v-6.938Zm-15.9,4.163H3.469a.694.694,0,1,1,0-1.388H6.244a.694.694,0,1,1,0,1.388Z" transform="translate(0 -287.992)"/></g></g><g transform="translate(11.1 32.008)"><path class="a" d="M266.68,34.146l-4.856-2.081a.7.7,0,0,0-.548,0l-4.856,2.081a.692.692,0,0,0-.419.637v2.775c0,3.817,1.411,6.048,5.2,8.234a.7.7,0,0,0,.691,0c3.794-2.18,5.2-4.411,5.2-8.234V34.782A.691.691,0,0,0,266.68,34.146ZM264.174,37.3,261.4,40.767a.7.7,0,0,1-.543.259h-.029a.7.7,0,0,1-.548-.308l-1.388-2.081a.693.693,0,1,1,1.154-.769l.862,1.292,2.181-2.728a.694.694,0,0,1,1.085.866Z" transform="translate(-256 -32.008)"/></g></g></svg>