<svg xmlns="http://www.w3.org/2000/svg" width="18.128" height="18.128" viewBox="0 0 18.128 18.128"><defs><style>.a{fill:#1768ac;}</style></defs><path class="a" d="M9.064.563a9.064,9.064,0,1,0,9.064,9.064A9.063,9.063,0,0,0,9.064.563Zm0,3.509A3.216,3.216,0,1,1,5.848,7.288,3.216,3.216,0,0,1,9.064,4.071Zm0,12.573A7,7,0,0,1,3.71,14.152a4.075,4.075,0,0,1,3.6-2.186.894.894,0,0,1,.259.04,4.839,4.839,0,0,0,1.495.252,4.821,4.821,0,0,0,1.495-.252.894.894,0,0,1,.259-.04,4.075,4.075,0,0,1,3.6,2.186A7,7,0,0,1,9.064,16.644Z" transform="translate(0 -0.563)"/></svg>