<svg xmlns="http://www.w3.org/2000/svg" width="21.001" height="22.496" viewBox="0 0 21.001 22.496"><defs><style>.a{fill:#fff;}</style></defs><g transform="translate(-16.991)"><path class="a" d="M34.13,211.511l-2.407,1.459,2.407,1.368Z" transform="translate(-14.084 -202.208)"/><path class="a" d="M427.89,213.237l-2.365-1.435v2.784Z" transform="translate(-390.565 -202.486)"/><path class="a" d="M116.447,0V12.881l6.126,3.482,6.15-3.509V0Zm6.837,12.622H121.9V11.24h1.382Zm-.031-2.588h-1.32V8.441a1.2,1.2,0,0,1,.916-1.164,1.048,1.048,0,1,0-.971-1.783,1.038,1.038,0,0,0-.333.766h-1.32a2.376,2.376,0,0,1,.752-1.731A2.347,2.347,0,0,1,122.76,3.9a2.368,2.368,0,0,1,.493,4.636v1.5Z" transform="translate(-95.081)"/><path class="a" d="M34.96,272.038,27.667,276.2l-.174.1-.175-.1-7.271-4.133-3.055-1.737v10.584h21V270.308Z" transform="translate(0 -258.419)"/></g></svg>