<svg xmlns="http://www.w3.org/2000/svg" width="20.427" height="21" viewBox="0 0 20.427 21">
  <path id="Icon_material-settings" data-name="Icon material-settings" d="M21.423,14.529a7.24,7.24,0,0,0,0-2.058l2.215-1.732a.53.53,0,0,0,.126-.672l-2.1-3.633a.528.528,0,0,0-.641-.231L18.41,7.252a7.671,7.671,0,0,0-1.774-1.029l-.4-2.782A.512.512,0,0,0,15.722,3h-4.2a.512.512,0,0,0-.514.441l-.4,2.782A8.067,8.067,0,0,0,8.834,7.252L6.219,6.2a.512.512,0,0,0-.64.231l-2.1,3.633a.518.518,0,0,0,.126.672L5.82,12.471A8.327,8.327,0,0,0,5.747,13.5a8.327,8.327,0,0,0,.074,1.029L3.6,16.261a.53.53,0,0,0-.126.672l2.1,3.633a.528.528,0,0,0,.64.231l2.614-1.05a7.671,7.671,0,0,0,1.774,1.029l.4,2.782a.512.512,0,0,0,.514.441h4.2a.512.512,0,0,0,.514-.441l.4-2.782a8.067,8.067,0,0,0,1.774-1.029l2.615,1.05a.512.512,0,0,0,.641-.231l2.1-3.633a.53.53,0,0,0-.126-.672l-2.215-1.733Zm-7.8,2.646A3.675,3.675,0,1,1,17.3,13.5,3.679,3.679,0,0,1,13.622,17.175Z" transform="translate(-3.406 -3)" fill="#fff"/>
</svg>
