<svg xmlns="http://www.w3.org/2000/svg" width="21.279" height="14.895" viewBox="0 0 21.279 14.895"><defs><style>.a{fill:#1768ac;}</style></defs><path class="a" d="M3.192,8.634A2.128,2.128,0,1,0,1.064,6.506,2.13,2.13,0,0,0,3.192,8.634Zm14.9,0a2.128,2.128,0,1,0-2.128-2.128A2.13,2.13,0,0,0,18.087,8.634ZM19.151,9.7H17.023a2.122,2.122,0,0,0-1.5.618,4.863,4.863,0,0,1,2.5,3.637h2.194a1.063,1.063,0,0,0,1.064-1.064V11.825A2.13,2.13,0,0,0,19.151,9.7Zm-8.511,0A3.724,3.724,0,1,0,6.916,5.974,3.722,3.722,0,0,0,10.639,9.7Zm2.553,1.064h-.276a5.141,5.141,0,0,1-4.555,0H8.086a3.831,3.831,0,0,0-3.83,3.83v.958a1.6,1.6,0,0,0,1.6,1.6h9.575a1.6,1.6,0,0,0,1.6-1.6v-.958A3.831,3.831,0,0,0,13.193,10.761Zm-7.438-.446a2.122,2.122,0,0,0-1.5-.618H2.128A2.13,2.13,0,0,0,0,11.825v1.064a1.063,1.063,0,0,0,1.064,1.064H3.255A4.876,4.876,0,0,1,5.755,10.316Z" transform="translate(0 -2.25)"/></svg>