<svg xmlns="http://www.w3.org/2000/svg" width="19.876" height="13.552" viewBox="0 0 19.876 13.552"><defs><style>.a{fill:#a8a8a8;}</style></defs><g transform="translate(0 -74.667)"><g transform="translate(0 74.667)"><g transform="translate(0 0)"><path class="a" d="M173.377,170.667a2.71,2.71,0,1,0,2.71,2.71A2.713,2.713,0,0,0,173.377,170.667Z" transform="translate(-163.439 -166.601)"/><path class="a" d="M9.938,74.667A10.685,10.685,0,0,0,0,81.443a10.676,10.676,0,0,0,19.876,0A10.681,10.681,0,0,0,9.938,74.667Zm0,11.293a4.517,4.517,0,1,1,4.517-4.517A4.519,4.519,0,0,1,9.938,85.96Z" transform="translate(0 -74.667)"/></g></g></g></svg>