<svg xmlns="http://www.w3.org/2000/svg" width="104.078" height="104.078" viewBox="0 0 104.078 104.078"><defs><style>.a{fill:#1768ac;}.b{fill:#fff;}</style></defs><path class="a" d="M104.078,91.068a13.048,13.048,0,0,1-13.01,13.01H13.01A13.048,13.048,0,0,1,0,91.068V13.01A13.048,13.048,0,0,1,13.01,0H91.068a13.048,13.048,0,0,1,13.01,13.01Z"/><g transform="translate(30.59 23.584)"><path class="b" d="M150.483,167.988V121.126c0-3.083,1.938-5.109,4.845-5.109H188.36c2.819,0,4.228,1.409,4.228,3.788v.529c0,2.466-1.41,3.788-4.228,3.788h-28.8v15.944h22.286c2.907,0,4.228,1.233,4.228,3.612v.264c0,2.466-1.41,3.788-4.228,3.788H159.556v17.265h29.333c2.819,0,4.14,1.233,4.14,3.612v.441c0,2.554-1.321,3.964-4.14,3.964H155.328C152.421,173.009,150.483,171.071,150.483,167.988Z" transform="translate(-150.483 -116.017)"/></g></svg>